<svg version="1.1" id="Layer_1" xmlns="http://www.w3.org/2000/svg" xmlns:xlink="http://www.w3.org/1999/xlink" x="0px" y="0px" viewBox="0 0 512 512" style="enable-background:new 0 0 512 512;" xml:space="preserve">
<style type="text/css">
	.st0{fill:#FFDD00;}
	.st1{fill:#FBBF00;}
	.st2{fill:#FFFFFF;}
	.st3{fill:#F49C0E;}
	.st4{fill:#FFF164;}
</style>
<g>
<path class="st0" d="M297.3283,126.3456c7.604,13.5583,2.7578,30.7183-10.8066,38.3137
		c-13.5637,7.5924-30.7153,2.7546-38.3192-10.8152c-7.5923-13.5552-2.7547-30.7067,10.8152-38.3046
		C272.5759,107.9382,289.739,112.7789,297.3283,126.3456z" id="id_113" style="fill: rgb(213, 206, 180);"></path>
<path class="st1" d="M376.7367,382.4708c8.4517,15.0893,27.5633,20.518,42.6588,12.0602
		c15.1247-8.4731,20.4966-27.5939,12.0419-42.6917c-1.7225-3.0682-3.8592-5.7123-6.3242-7.9383
		c-9.0965,4.3335-18.4135,9.1411-27.8261,14.3962c-8.3923,4.7069-16.4143,9.5262-24.0598,14.3852
		C373.8328,376.0306,374.9789,379.3195,376.7367,382.4708z" id="id_114" style="fill: rgb(145, 141, 107);"></path>
<path class="st2" d="M390.8016,383.4915c-0.3906,4.5931,4.7722,8.7798,11.5229,9.3501c6.7538,0.5519,12.5461-2.7155,12.925-7.2971
		c0.3881-4.5895-4.7808-8.7677-11.5315-9.3257C396.9643,375.6548,391.1812,378.9075,390.8016,383.4915z" id="id_115"></path>
<path class="st0" d="M248.8651,266.9308c-49.6422-58.3055-8.1534-117.8558,18.5182-132.7869
		c26.677-14.9395,99.1439-19.1892,122.9086,53.6145c28.9513,88.6509,101.0594,50.6178,113.045,72.0336
		c8.4426,15.0771-38.651,71.7744-110.1443,111.6875c-56.775,31.6884-135.709,43.3391-141.9909,29.4886
		C236.5666,368.6834,309.3372,337.959,248.8651,266.9308z" id="id_116" style="fill: rgb(213, 206, 180);"></path>
<path class="st3" d="M362.3997,372.9569c-10.8273,3.551-27.7606,9.0751-34.5205-2.8562
		c-4.8346,2.1906-9.6631,3.1635-14.9725,1.2982c-0.7756-0.2775-1.6234-1.0355-1.489-1.9608
		c1.6057-12.1286,9.6631-20.2283,15.3424-30.4139c-7.0013-1.3099-14.2294,2.7516-21.4782,1.7755
		c-1.2895-0.1607-2.3726-1.1668-1.9759-2.5781c4.3933-15.728,16.6858-28.7306,28.1396-39.8478
		c7.1834-6.9683,28.5724-18.9924,29.1696-30.7122c-10.2126,2.1252-20.4728,5.0828-29.7184,9.8997
		c-6.0228,3.1367-10.5352,8.1741-16.2053,11.8389c-6.6016,4.2766-16.0349,7.2611-21.8424-0.1283
		c-3.5518-4.5034-0.2805-10.9467,2.1244-15.1516c1.7432-3.05,4.056-6.1628,5.202-9.5116c2.0384-6.0222-4.8792-5.6255-9.2127-5.5748
		c-1.8531,0.0092-2.6141-2.226-1.4442-3.4973c3.79-3.2143,5.4134-7.3356,4.8969-12.3499c-2.9783,0.5018-5.8582-0.0507-9.0426,0.4241
		c-1.8593,0.2714-3.05-1.2682-2.3036-3.0083c1.8562-4.2943,27.3158-31.2134,3.4527-75.9434
		c-5.7331-10.7467-28.5662-16.9455-22.8571-28.1787c-26.5462,18.0291-62.1853,74.8096-14.7995,130.4502
		c60.4721,71.0281-12.2985,101.7526,2.3366,134.0373c6.2819,13.8505,85.2159,2.1998,141.9909-29.4886
		c12.6653-7.0728,24.5433-14.6772,35.5046-22.481C406.6996,357.2258,384.6658,365.6273,362.3997,372.9569z" id="id_117" style="fill: rgb(179, 172, 129);"></path>
</g>
<g>
<path class="st0" d="M264.6555,266.4174c45.6878-61.4567,0.3581-118.1572-27.2388-131.3035
		c-27.6078-13.1432-100.1909-12.5907-119.0971,61.6187c-23.0423,90.3727-97.5024,57.1686-108.0553,79.3185
		c-10.5469,22.162,7.6192,63.269,118.3869,116.0088c70.7477,33.7021,127.2781,40.2414,142.5074,8.2279
		C286.4025,368.2984,209.0026,341.2509,264.6555,266.4174z" id="id_118" style="fill: rgb(213, 206, 180);"></path>
<path class="st0" d="M207.0242,129.3185c-6.6884,14.0442-0.7341,30.8406,13.307,37.5167
		c14.0325,6.6877,30.8289,0.7249,37.5136-13.3138c6.6792-14.0235,0.7285-30.8253-13.3162-37.5136
		C230.5022,109.3201,213.7034,115.283,207.0242,129.3185z" id="id_119" style="fill: rgb(213, 206, 180);"></path>
<path class="st0" d="M259.2476,85.1288c-9.3349-4.4379-20.4997-0.4773-24.9462,8.8366c-4.4379,9.338-0.4865,20.5088,8.8483,24.9432
		c9.3294,4.4409,20.4912,0.481,24.9438-8.8392C272.5338,100.737,268.5769,89.5752,259.2476,85.1288z M247.298,110.2032
		c-4.5211-2.1606-6.4371-7.574-4.2796-12.0773c2.155-4.5125,7.5507-6.4317,12.0718-4.2888
		c4.5125,2.1575,6.4378,7.5746,4.2827,12.0809C257.2245,110.4245,251.8197,112.3613,247.298,110.2032z" id="id_120" style="fill: rgb(213, 206, 180);"></path>
<path class="st3" d="M263.375,405.0626c-9.305,19.5265-72.5892,8.8129-141.34-23.9285
		C53.2512,348.4013,5.0477,306.0054,14.3526,286.4758c7.9805-16.7664,55.7482-11.2333,112.6368,11.424
		c9.3618,3.7363,18.9686,7.8936,28.7124,12.5492c8.6815,4.1189,17.0079,8.4131,24.9553,12.7466
		C235.6949,353.5103,271.4954,388.0071,263.375,405.0626z" id="id_121" style="fill: rgb(179, 172, 129);"></path>
<path class="st4" d="M177.7978,333.1843c-7.4364,15.6198-26.149,22.2899-41.7632,14.8619
		c-15.6559-7.4579-22.2722-26.1911-14.8381-41.8024c1.5189-3.1783,3.471-5.9567,5.7929-8.3441
		c9.3618,3.7363,18.9686,7.8936,28.7124,12.5492c8.6815,4.1189,17.0079,8.4131,24.9553,12.7466
		C180.2751,326.5827,179.3441,329.9492,177.7978,333.1843z" id="id_122" style="fill: rgb(230, 223, 193);"></path>
<path class="st2" d="M163.843,335.1535c0.6869,4.5572-4.1929,9.055-10.8959,10.0635c-6.7055,1.0085-12.6866-1.8685-13.3755-6.4103
		c-0.6809-4.5601,4.1959-9.058,10.8959-10.078C157.1673,327.7257,163.148,330.5903,163.843,335.1535z" id="id_123"></path>
<path class="st2" d="M229.0458,141.7009c15.3545,3.7662,44.9237,31.0373,38.5196,82.4759
		c-3.7993,30.5208-18.3782,57.4131-28.3456,52.6622c-13.9702-6.6554,5.5509-26.4473,9.8813-56.879
		C256.084,170.8582,213.7034,137.9255,229.0458,141.7009z" id="id_124"></path>
</g>
</svg>