<svg width="512" height="512" viewBox="0 0 512 512" fill="none" xmlns="http://www.w3.org/2000/svg">
<path d="M496 40C496 33.579 493.499 27.55 488.972 23.038C484.443 18.501 478.415 16.002 472 16.002C465.585 16.002 459.558 18.501 455.033 23.033L262.7 215.366L262.696 215.362C261.195 213.862 259.161 213.019 257.039 213.019C254.917 213.019 252.883 213.862 251.382 215.362L234.411 232.334L212.056 209.97C192.728 190.655 162.563 188.162 140.33 204.039L94 237.141C92.087 238.508 90.871 240.647 90.678 242.991C90.484 245.335 91.331 247.645 92.993 249.307L105.445 261.76C82.681 285.054 54.546 302.713 23.623 313.02L16.923 315.25C14.292 316.126 12.302 318.302 11.664 321.001C11.025 323.7 11.831 326.537 13.792 328.498L183.502 498.208C185.021 499.726 187.063 500.552 189.159 500.551C189.771 500.551 190.389 500.481 190.999 500.337C193.698 499.699 195.874 497.709 196.75 495.077L198.979 488.381C205.346 469.28 214.475 451.253 226.109 434.804C233.279 424.677 241.385 415.211 250.242 406.558L262.692 419.008C264.199 420.514 266.236 421.351 268.348 421.351C268.568 421.351 268.787 421.342 269.008 421.324C271.352 421.13 273.491 419.915 274.859 418.002L307.961 371.67C323.838 349.437 321.344 319.272 302.027 299.944L279.67 277.586L296.638 260.618C299.762 257.494 299.762 252.429 296.638 249.305L296.634 249.301L488.957 56.977C493.499 52.45 496 46.421 496 40ZM240.069 249.304L257.039 232.334L279.667 254.961L262.697 271.931C256.457 278.169 246.308 278.169 240.068 271.931C237.047 268.909 235.381 264.891 235.381 260.618C235.382 256.344 237.047 252.326 240.069 249.304ZM213.049 425.561C201.633 441.701 192.455 459.249 185.723 477.799L160.874 452.951L200.472 413.353C203.596 410.229 203.596 405.164 200.472 402.04C197.347 398.916 192.283 398.916 189.158 402.04L149.561 441.637L138.247 430.323L177.845 390.725C180.969 387.601 180.969 382.536 177.845 379.412C174.72 376.288 169.656 376.288 166.531 379.412L126.934 419.009L115.621 407.696L155.219 368.098C158.343 364.974 158.343 359.909 155.219 356.785C152.096 353.661 147.031 353.661 143.905 356.785L104.3 396.386L92.987 385.071L132.589 345.47C135.713 342.346 135.713 337.281 132.589 334.157C129.465 331.033 124.401 331.033 121.275 334.157L81.675 373.757L70.363 362.443L109.963 322.843C113.087 319.719 113.087 314.654 109.963 311.53C106.838 308.406 101.774 308.406 98.649 311.53L59.05 351.129L34.202 326.278C65.311 314.979 93.603 296.724 116.757 273.071L238.931 395.245C229.434 404.536 220.743 414.695 213.049 425.561Z" fill="#36576a" id="id_102"></path>
</svg>