<svg id="Layer_1" data-name="Layer 1" xmlns="http://www.w3.org/2000/svg" viewBox="0 0 128 128"><defs><style>.cls-1{fill:#2d3e50;}</style></defs><title>x</title><path class="cls-1" d="M109.96371,23.39647A61.6524,61.6524,0,0,0,90.24123,8.59794a60.94468,60.94468,0,0,0-11.42932-4.075,61.43748,61.43748,0,0,0-66.90462,92.157l4.13159-2.5835c-.63588-1.38829-1.2518-2.77327-1.7978-4.17821l-.40616-1.05537c-.12985-.3529-.24969-.71246-.37287-1.06536-.25636-.7058-.47275-1.42493-.68916-2.13737a56.89882,56.89882,0,0,1-1.75452-26.0048,53.0426,53.0426,0,0,1,2.02419-8.25987,56.56069,56.56069,0,0,1,3.246-7.73718,53.42979,53.42979,0,0,1,9.73473-13.287,52.27337,52.27337,0,0,1,13.07731-9.48837,50.89922,50.89922,0,0,1,15.06153-4.91065,55.972,55.972,0,0,1,7.85369-.60926l1.9676.02331c.65585.03995,1.31173.05659,1.96427.11985,1.30506.09323,2.60014.25969,3.88523.45944.64254.09654,1.28509.20641,1.921.33293L65.04546,27.48811Z" id="id_109" style="fill: rgb(0, 145, 162);"></path><path class="cls-1" d="M75.86148,124.09933a61.63091,61.63091,0,0,1-14.8693,1.10291,60.8483,60.8483,0,0,1-12.00151-1.78615,61.643,61.643,0,0,1-22.21265-10.701l10.01708-2.94318.00325.00073,33.25647-9.76662-4.41652,12.2758q.97175.00262,1.95114-.04423c1.29755-.05068,2.60057-.14107,3.89863-.30082.65262-.06542,1.301-.17273,1.95222-.26234l1.93285-.35879a55.85717,55.85717,0,0,0,7.587-2.11572,50.99755,50.99755,0,0,0,13.82889-7.7327,52.34515,52.34515,0,0,0,10.99233-11.84081,53.36952,53.36952,0,0,0,6.98022-14.919,57.00333,57.00333,0,0,0,1.68665-8.21977,50.13085,50.13085,0,0,0,.40817-7.20275c-.00257-.43045-.01236-.8591-.02143-1.291a54.82509,54.82509,0,0,0-1.6244-11.85413l6.80778-2.39933a61.44952,61.44952,0,0,1-46.15683,80.35893Z" id="id_110" style="fill: rgb(0, 145, 162);"></path></svg>